<svg width="50" height="50" viewBox="0 0 50 50" fill="none" xmlns="http://www.w3.org/2000/svg">
<path d="M25 38.5413L18.75 35.4163M18.75 35.4163L6.25 41.6663V14.583L18.75 8.33301M18.75 35.4163V8.33301M18.75 8.33301L31.25 14.583M31.25 14.583L43.75 8.33301V22.9163M31.25 14.583V24.9997M39.5833 37.4997V37.5205M44.0021 41.9184C44.8763 41.0444 45.4718 39.9308 45.7131 38.7183C45.9544 37.5059 45.8308 36.2492 45.3578 35.107C44.8848 33.9649 44.0837 32.9886 43.0558 32.3018C42.028 31.6149 40.8195 31.2483 39.5833 31.2483C38.3471 31.2483 37.1387 31.6149 36.1108 32.3018C35.083 32.9886 34.2819 33.9649 33.8089 35.107C33.3359 36.2492 33.2123 37.5059 33.4536 38.7183C33.6949 39.9308 34.2903 41.0444 35.1646 41.9184C36.0354 42.7906 37.5083 44.0955 39.5833 45.833C41.7736 43.9788 43.2465 42.674 44.0021 41.9184Z" stroke="white" stroke-width="3" stroke-linecap="round" stroke-linejoin="round"/>
</svg>
