<svg width="50" height="50" viewBox="0 0 50 50" fill="none" xmlns="http://www.w3.org/2000/svg">
<path d="M32.2923 31.25L29.1673 21.875C25.7152 21.875 25.0007 24.6729 25.0007 28.125M25.0007 28.125V31.25M25.0007 28.125C25.0007 24.6729 24.2861 21.875 20.834 21.875L17.709 31.25" stroke="#C5B258" stroke-width="3" stroke-linecap="round" stroke-linejoin="round"/>
<path d="M45.7878 45.8338C43.392 44.4379 39.3587 41.2796 33.9337 41.6838C32.5607 41.7858 31.8732 41.8379 31.2462 41.7879C31.0181 41.7802 30.7907 41.7601 30.5649 41.7275C27.3732 40.9879 25.0003 38.2004 25.0003 34.8754M25.0003 34.8754V6.65875M25.0003 34.8754C25.0003 38.2004 22.6274 40.99 19.4357 41.7275C19.4003 41.7358 19.3816 41.7379 18.7545 41.7879C18.1274 41.8379 17.4399 41.7858 16.067 41.6838C10.642 41.2796 6.60866 44.4379 4.21283 45.8338M25.0003 6.65875C25.0015 6.08171 25.2027 5.52292 25.5697 5.07763C25.9367 4.63233 26.4468 4.3281 27.013 4.21677C27.5792 4.10545 28.1665 4.19393 28.6747 4.46713C29.183 4.74033 29.5808 5.18135 29.8003 5.715L35.4628 19.5567C37.6837 24.9838 38.7941 27.6963 40.7295 29.0921C40.8482 29.1796 41.0691 29.3275 41.1941 29.4046C43.217 30.6671 44.0899 30.6671 45.8337 30.6671M25.0003 6.65875C24.9992 6.08171 24.798 5.52292 24.431 5.07763C24.064 4.63233 23.5539 4.3281 22.9877 4.21677C22.4215 4.10545 21.8342 4.19393 21.3259 4.46713C20.8176 4.74033 20.4198 5.18135 20.2003 5.715L14.5378 19.5588C12.317 24.9858 11.2066 27.7004 9.27116 29.0942C9.11913 29.2025 8.96421 29.3067 8.80658 29.4067C6.78366 30.6692 5.91074 30.6692 4.16699 30.6692" stroke="#C5B258" stroke-width="3" stroke-linecap="round" stroke-linejoin="round"/>
</svg>
