<svg width="50" height="50" viewBox="0 0 50 50" fill="none" xmlns="http://www.w3.org/2000/svg">
<path fill-rule="evenodd" clip-rule="evenodd" d="M20.8336 7.8125C18.119 7.8125 15.9857 9.95 15.9857 12.5C15.9857 15.05 18.1169 17.1875 20.8336 17.1875C23.5502 17.1875 25.6836 15.05 25.6836 12.5C25.6836 9.95 23.5502 7.8125 20.8336 7.8125ZM12.8607 12.5C12.8607 8.14583 16.469 4.6875 20.8377 4.6875C25.2044 4.6875 28.8127 8.14583 28.8127 12.5C28.8127 16.8542 25.2044 20.3125 20.8377 20.3125C16.4711 20.3125 12.8544 16.8542 12.8544 12.5M15.5627 24.9292C15.1815 24.6854 14.8961 24.6708 14.7628 24.7063C14.4628 24.7896 14.1648 24.8785 13.869 24.9729L11.819 25.6292C11.1167 25.8454 10.4745 26.2224 9.94322 26.7301C9.41199 27.2378 9.00638 27.8624 8.75858 28.5542C8.70311 28.7387 8.66749 28.9287 8.65233 29.1208L7.83775 36.8271L7.83358 36.8542C7.67733 37.9521 8.26275 38.7917 9.15233 39C11.3961 39.5208 15.1753 40.1042 20.8315 40.1042C21.2459 40.1042 21.6433 40.2688 21.9364 40.5618C22.2294 40.8548 22.394 41.2523 22.394 41.6667C22.394 42.0811 22.2294 42.4785 21.9364 42.7715C21.6433 43.0645 21.2459 43.2292 20.8315 43.2292C14.9607 43.2292 10.9419 42.6208 8.44608 42.0417C5.76067 41.4188 4.40025 38.8958 4.73567 36.4437L5.544 28.7917C5.5815 28.4333 5.64817 27.9896 5.8065 27.5333C6.21282 26.3831 6.88148 25.3433 7.75948 24.4964C8.63749 23.6495 9.7007 23.0188 10.8648 22.6542L12.9169 21.9958C13.2544 21.8889 13.5933 21.7882 13.9336 21.6938C15.2065 21.3438 16.4169 21.7625 17.2586 22.3062C18.0294 22.8062 19.2877 23.4083 20.8315 23.4083C22.3732 23.4083 23.6315 22.8042 24.4023 22.3042C25.2419 21.7625 26.4544 21.3438 27.7273 21.6938C28.0676 21.7882 28.4065 21.8889 28.744 21.9958L30.7961 22.6542C30.9955 22.7134 31.1811 22.8119 31.342 22.9438C31.5028 23.0757 31.6357 23.2384 31.7329 23.4224C31.83 23.6063 31.8894 23.8078 31.9077 24.0151C31.9259 24.2223 31.9026 24.4311 31.839 24.6292C31.7755 24.8273 31.673 25.0107 31.5377 25.1687C31.4023 25.3266 31.2368 25.456 31.0507 25.5491C30.8647 25.6423 30.662 25.6973 30.4544 25.7111C30.2468 25.7248 30.0386 25.697 29.8419 25.6292L27.7919 24.9729C27.4951 24.8779 27.1965 24.789 26.8961 24.7063C26.7648 24.6708 26.4794 24.6854 26.1002 24.9292C25.0315 25.6208 23.1836 26.5333 20.8294 26.5333C18.4753 26.5333 16.6315 25.6208 15.5627 24.9292ZM31.5627 33.6021C30.8919 34.4562 30.7086 35.1708 30.7294 35.7729C30.7544 36.4187 31.0232 37.1271 31.5627 37.9C32.6794 39.4979 34.6357 40.9479 36.3982 42.1708C36.4156 42.1829 36.4363 42.1894 36.4575 42.1894C36.4788 42.1894 36.4995 42.1829 36.5169 42.1708C38.2919 40.9417 40.2461 39.4917 41.3586 37.8979C41.8982 37.125 42.1648 36.4187 42.1857 35.7729C42.2065 35.1729 42.0232 34.4562 41.3503 33.6C40.3086 32.5583 38.8648 32.5875 37.8398 33.4604C37.0482 34.1375 35.8669 34.1375 35.0732 33.4604C34.0482 32.5896 32.6065 32.5583 31.5627 33.6021ZM36.4586 30.6042C34.2794 29.2042 31.3252 29.3333 29.2648 31.4812L29.219 31.5312L29.1773 31.5833C28.069 32.9583 27.5565 34.4083 27.6107 35.8833C27.6627 37.3229 28.2482 38.6063 29.0065 39.6896C30.4857 41.8083 32.9065 43.5479 34.6211 44.7375C35.1608 45.1107 35.8014 45.3106 36.4575 45.3106C37.1137 45.3106 37.7543 45.1107 38.294 44.7375C40.0232 43.5438 42.444 41.8042 43.9232 39.6833C44.6794 38.6 45.2627 37.3187 45.3107 35.8792C45.3628 34.4062 44.8461 32.9563 43.7398 31.5833L43.6982 31.5312L43.6523 31.4833C41.594 29.3333 38.6377 29.2042 36.4586 30.6042Z" fill="#C5B258"/>
</svg>
