<svg width="50" height="50" viewBox="0 0 50 50" fill="none" xmlns="http://www.w3.org/2000/svg">
<path d="M24.9954 4.16699C18.7288 4.16699 14.6663 8.37324 9.86211 9.90658C7.90795 10.5316 6.93086 10.842 6.53503 11.2816C6.1392 11.7191 6.02461 12.3628 5.79336 13.6462C3.3142 27.3878 8.73086 40.092 21.6475 45.0378C23.0329 45.5691 23.7267 45.8337 25.0017 45.8337C26.2767 45.8337 26.9725 45.567 28.36 45.0357C41.2746 40.092 46.685 27.3878 44.2059 13.6462C43.9746 12.3628 43.858 11.7191 43.4621 11.2795C43.0663 10.8399 42.0913 10.5295 40.1371 9.90658C35.3309 8.37324 31.2621 4.16699 24.9954 4.16699Z" stroke="#C5B258" stroke-width="3" stroke-linecap="round" stroke-linejoin="round"/>
<path d="M21.3541 20.7485C21.3541 20.6235 21.3708 19.9026 21.375 18.9985C21.375 18.1693 21.3041 17.3735 21.7 16.6443C23.1791 13.6985 27.4291 13.9985 28.4791 16.9985C28.6604 17.4922 28.6729 18.2735 28.6666 18.9985C28.6604 19.9214 28.6791 20.7485 28.6791 20.7485M21.5354 21.6256C19.2854 21.6256 18.1604 23.2506 17.9104 24.2506C17.6604 25.2506 17.6604 28.8755 17.8104 30.3755C18.3104 32.2505 19.5604 33.0256 20.7854 33.2756C21.9104 33.3756 26.6604 33.3381 28.0354 33.3381C30.0354 33.3756 31.5354 32.6255 32.1604 30.3755C32.2854 29.6255 32.4104 25.5006 32.0979 24.2506C31.4354 22.2506 29.7854 21.6256 28.5354 21.6256H21.5354Z" stroke="#C5B258" stroke-width="3" stroke-linecap="round" stroke-linejoin="round"/>
</svg>
