<svg width="150" height="150" viewBox="0 0 150 150" fill="none" xmlns="http://www.w3.org/2000/svg">
<g filter="url(#filter0_f_3315_415)">
<circle cx="75.1002" cy="75.1998" r="26.4" fill="#C5B258"/>
</g>
<g clip-path="url(#clip0_3315_415)">
<path d="M67.0179 65.7275C59.2922 65.7275 51.5723 67.9961 44.897 72.536H32.2783L37.9583 78.7137C35.3704 81.0715 33.5561 84.1571 32.754 87.5649C31.9519 90.9728 32.1993 94.5436 33.4639 97.8082C34.7284 101.073 36.9509 103.879 39.8394 105.857C42.7278 107.835 46.1471 108.894 49.6481 108.893C54.0224 108.896 58.2353 107.242 61.4392 104.263L67.0005 110.317L72.5619 104.269C75.7629 107.246 79.9733 108.898 84.3443 108.893C88.9477 108.893 93.3627 107.065 96.6184 103.81C99.8741 100.556 101.704 96.1412 101.705 91.5377C101.708 89.1234 101.206 86.7352 100.231 84.5265C99.2557 82.3179 97.8291 80.3379 96.0428 78.7137L101.723 72.536H89.136C82.6147 68.096 74.9072 65.7235 67.0179 65.7275ZM67.0005 71.3988C71.4305 71.3988 75.8634 72.2756 80.0329 74.0117C72.6226 76.8473 67.0005 83.4793 67.0005 91.205C67.0005 83.4764 61.3813 76.8473 53.9681 74.0117C58.0971 72.2891 62.5266 71.3991 67.0005 71.3988ZM49.6452 79.7958C51.1876 79.7958 52.7148 80.0996 54.1398 80.6899C55.5647 81.2801 56.8594 82.1452 57.95 83.2358C59.0406 84.3264 59.9058 85.6211 60.496 87.0461C61.0862 88.471 61.39 89.9983 61.39 91.5406C61.39 93.083 61.0862 94.6102 60.496 96.0352C59.9058 97.4601 59.0406 98.7548 57.95 99.8454C56.8594 100.936 55.5647 101.801 54.1398 102.391C52.7148 102.982 51.1876 103.285 49.6452 103.285C46.5303 103.285 43.543 102.048 41.3404 99.8454C39.1378 97.6429 37.9004 94.6555 37.9004 91.5406C37.9004 88.4257 39.1378 85.4384 41.3404 83.2358C43.543 81.0332 46.5303 79.7958 49.6452 79.7958ZM84.3443 79.8016C85.8861 79.8011 87.4129 80.1042 88.8375 80.6936C90.2621 81.2831 91.5567 82.1475 92.6473 83.2372C93.7379 84.327 94.6032 85.621 95.1937 87.0452C95.7843 88.4694 96.0885 89.996 96.0891 91.5377C96.0897 93.0795 95.7865 94.6063 95.1971 96.0309C94.6076 97.4556 93.7433 98.7502 92.6535 99.8408C91.5637 100.931 90.2697 101.797 88.8455 102.387C87.4213 102.978 85.8947 103.282 84.353 103.283C81.2392 103.284 78.2525 102.048 76.0499 99.8469C73.8474 97.6459 72.6093 94.6602 72.6082 91.5464C72.607 88.4327 73.8429 85.446 76.0438 83.2434C78.2448 81.0408 81.2305 79.8028 84.3443 79.8016ZM49.6452 85.3861C48.0122 85.3861 46.446 86.0348 45.2913 87.1896C44.1365 88.3443 43.4878 89.9105 43.4878 91.5435C43.4878 93.1766 44.1365 94.7427 45.2913 95.8975C46.446 97.0522 48.0122 97.7009 49.6452 97.7009C51.2783 97.7009 52.8444 97.0522 53.9992 95.8975C55.1539 94.7427 55.8026 93.1766 55.8026 91.5435C55.8026 89.9105 55.1539 88.3443 53.9992 87.1896C52.8444 86.0348 51.2783 85.3861 49.6452 85.3861ZM84.3443 85.3861C82.7112 85.3861 81.1451 86.0348 79.9903 87.1896C78.8356 88.3443 78.1869 89.9105 78.1869 91.5435C78.1869 93.1766 78.8356 94.7427 79.9903 95.8975C81.1451 97.0522 82.7112 97.7009 84.3443 97.7009C85.9773 97.7009 87.5435 97.0522 88.6982 95.8975C89.853 94.7427 90.5017 93.1766 90.5017 91.5435C90.5017 89.9105 89.853 88.3443 88.6982 87.1896C87.5435 86.0348 85.9773 85.3861 84.3443 85.3861Z" fill="black"/>
</g>
<g clip-path="url(#clip1_3315_415)">
<path fill-rule="evenodd" clip-rule="evenodd" d="M45.4958 110.012C44.5744 109.999 43.6595 110.17 42.8045 110.513C41.9494 110.857 41.1712 111.367 40.515 112.014C39.8588 112.661 39.3377 113.432 38.9821 114.283C38.6265 115.133 38.4433 116.045 38.4433 116.967C38.4433 117.888 38.6265 118.801 38.9821 119.651C39.3377 120.501 39.8588 121.272 40.515 121.919C41.1712 122.566 41.9494 123.076 42.8045 123.42C43.6595 123.764 44.5744 123.934 45.4958 123.921C47.3405 123.921 49.1096 123.189 50.414 121.884C51.7184 120.58 52.4512 118.811 52.4512 116.966C52.4512 115.121 51.7184 113.352 50.414 112.048C49.1096 110.744 47.3405 110.012 45.4958 110.012ZM45.7713 113.3L46.6983 115.165C46.7184 115.213 46.751 115.254 46.7926 115.284C46.8341 115.314 46.8832 115.333 46.9344 115.338L48.9918 115.65C49.0508 115.657 49.1063 115.681 49.152 115.719C49.1976 115.757 49.2315 115.808 49.2496 115.864C49.2677 115.921 49.2692 115.981 49.2541 116.039C49.239 116.096 49.2078 116.148 49.1642 116.188L47.6469 117.632C47.6241 117.676 47.6122 117.724 47.6122 117.772C47.6122 117.821 47.6241 117.869 47.6469 117.912L47.9373 119.959C47.9496 120.018 47.9445 120.079 47.9227 120.135C47.901 120.191 47.8634 120.24 47.8147 120.275C47.7659 120.31 47.708 120.331 47.6479 120.334C47.5878 120.337 47.5281 120.322 47.4759 120.292L45.6438 119.323C45.5962 119.302 45.5446 119.291 45.4924 119.291C45.4403 119.291 45.3887 119.302 45.3411 119.323L43.509 120.292C43.4568 120.322 43.3971 120.337 43.337 120.334C43.2769 120.331 43.219 120.31 43.1702 120.275C43.1215 120.24 43.0839 120.191 43.0622 120.135C43.0404 120.079 43.0353 120.018 43.0476 119.959L43.3909 117.912C43.4059 117.865 43.4087 117.814 43.3993 117.765C43.3898 117.717 43.3682 117.671 43.3366 117.632L41.818 116.178C41.7772 116.137 41.7485 116.086 41.735 116.03C41.7216 115.974 41.7239 115.915 41.7417 115.86C41.7596 115.805 41.7923 115.756 41.8361 115.719C41.88 115.682 41.9334 115.657 41.9903 115.648L44.0491 115.348C44.1004 115.344 44.1494 115.325 44.191 115.295C44.2326 115.264 44.2651 115.223 44.2853 115.176L45.2122 113.311C45.2369 113.258 45.2759 113.213 45.3248 113.182C45.3738 113.15 45.4307 113.132 45.4891 113.131C45.5474 113.13 45.605 113.145 45.6551 113.175C45.7053 113.205 45.746 113.249 45.7727 113.3H45.7713ZM52.6928 121.766C51.5217 123.518 49.754 124.784 47.7188 125.329L49.6351 128.648C49.7022 128.765 49.8022 128.858 49.9225 128.918C50.0428 128.977 50.178 129 50.3111 128.982C50.4442 128.965 50.5691 128.908 50.67 128.82C50.771 128.731 50.8434 128.615 50.8783 128.486L51.5704 125.908L54.1463 126.599C54.2759 126.634 54.4128 126.629 54.5398 126.586C54.6668 126.543 54.7781 126.463 54.8598 126.356C54.9414 126.25 54.9896 126.122 54.9984 125.988C55.0071 125.854 54.976 125.72 54.909 125.604L52.6928 121.766ZM43.2796 125.33C41.2432 124.789 39.4738 123.525 38.303 121.773L36.0908 125.604C36.0238 125.72 35.9927 125.854 36.0014 125.988C36.0102 126.122 36.0584 126.25 36.1401 126.356C36.2217 126.463 36.333 126.543 36.46 126.586C36.587 126.629 36.724 126.634 36.8536 126.599L39.4308 125.908L40.1216 128.486C40.1564 128.615 40.2289 128.731 40.3298 128.82C40.4308 128.908 40.5557 128.965 40.6887 128.982C40.8218 129 40.957 128.977 41.0773 128.918C41.1977 128.858 41.2977 128.765 41.3647 128.648L43.2796 125.33Z" fill="#C5B258"/>
</g>
<defs>
<filter id="filter0_f_3315_415" x="0.700195" y="0.799805" width="148.8" height="148.8" filterUnits="userSpaceOnUse" color-interpolation-filters="sRGB">
<feFlood flood-opacity="0" result="BackgroundImageFix"/>
<feBlend mode="normal" in="SourceGraphic" in2="BackgroundImageFix" result="shape"/>
<feGaussianBlur stdDeviation="24" result="effect1_foregroundBlur_3315_415"/>
</filter>
<clipPath id="clip0_3315_415">
<rect width="69.4444" height="69.4444" fill="white" transform="translate(32.2783 53.2998)"/>
</clipPath>
<clipPath id="clip1_3315_415">
<rect width="19" height="19" fill="white" transform="translate(36 110)"/>
</clipPath>
</defs>
</svg>
