<svg width="150" height="154" viewBox="0 0 150 154" fill="none" xmlns="http://www.w3.org/2000/svg">
<g filter="url(#filter0_f_3315_426)">
<ellipse cx="74.7568" cy="76.6956" rx="26.7568" ry="28.6957" fill="black"/>
</g>
<path d="M82.5003 72.333C79.2462 72.333 76.4604 73.4754 74.143 75.7601C71.8257 78.0448 70.667 80.7913 70.667 83.9997C70.667 86.1872 71.2222 88.2045 72.3325 90.0518C73.4429 91.899 74.9832 93.333 76.9534 94.3538C77.7423 94.7427 78.2975 95.3134 78.619 96.0659C78.9405 96.8184 78.9276 97.5845 78.5805 98.3643C78.2354 99.0448 77.7177 99.5552 77.0274 99.8955C76.3371 100.236 75.6469 100.236 74.9566 99.8955C71.8503 98.4372 69.3732 96.274 67.5252 93.4059C65.6773 90.5379 64.7523 87.4025 64.7503 83.9997C64.7503 79.1386 66.476 75.0066 69.9274 71.6038C73.3788 68.2011 77.5698 66.4997 82.5003 66.4997C86.001 66.4997 89.2187 67.4116 92.1534 69.2355C95.088 71.0594 97.2693 73.5502 98.6972 76.708C98.993 77.3886 98.9812 78.0691 98.6617 78.7497C98.3422 79.4302 97.8363 79.9163 97.1441 80.208C96.3552 80.5483 95.5663 80.5483 94.7774 80.208C93.9885 79.8677 93.3969 79.3087 93.0024 78.5309C91.967 76.5865 90.5125 75.0679 88.6389 73.9751C86.7653 72.8823 84.7191 72.335 82.5003 72.333ZM82.5003 60.6663C75.8934 60.6663 70.2972 62.9268 65.7118 67.4476C61.1264 71.9684 58.8337 77.4858 58.8337 83.9997C58.8337 90.1247 60.8798 95.3747 64.9722 99.7497C69.0646 104.125 74.1923 106.604 80.3555 107.187C81.1937 107.284 81.9205 107.649 82.5358 108.281C83.1512 108.913 83.4352 109.642 83.3878 110.468C83.3405 111.295 83.0318 111.975 82.4619 112.51C81.8919 113.045 81.1898 113.288 80.3555 113.239C76.5097 112.996 72.9222 112.048 69.5931 110.396C66.264 108.743 63.355 106.591 60.866 103.941C58.3771 101.291 56.4295 98.2525 55.0233 94.8263C53.6171 91.4002 52.915 87.7913 52.917 83.9997C52.917 79.965 53.6941 76.1733 55.2482 72.6247C56.8023 69.0761 58.9096 65.9893 61.5701 63.3643C64.2306 60.7393 67.3616 58.6616 70.9628 57.1313C74.5641 55.6011 78.4099 54.835 82.5003 54.833C90.2413 54.833 96.9843 57.4337 102.729 62.6351C108.474 67.8365 111.617 74.2531 112.158 81.8851C112.256 82.6629 112.023 83.3318 111.456 83.8918C110.89 84.4518 110.187 84.7551 109.347 84.8018C108.507 84.8484 107.756 84.5811 107.093 83.9997C106.43 83.4183 106.048 82.7134 105.945 81.8851C105.206 76.0518 102.63 71.0575 98.2179 66.9022C93.8061 62.7469 88.5669 60.6683 82.5003 60.6663ZM104.836 111.708L95.0732 102.156L92.8545 108.791C92.608 109.472 92.1396 109.801 91.4493 109.777C90.759 109.754 90.2906 109.401 90.0441 108.718L83.3139 86.6247C83.1166 86.09 83.2399 85.6038 83.6837 85.1663C84.1274 84.7288 84.6205 84.6073 85.1628 84.8018L107.572 91.4372C108.262 91.6802 108.62 92.142 108.646 92.8226C108.672 93.5031 108.338 93.965 107.646 94.208L100.916 96.3955L110.678 106.021C111.517 106.847 111.936 107.795 111.936 108.864C111.936 109.934 111.517 110.882 110.678 111.708C109.84 112.534 108.867 112.948 107.759 112.948C106.65 112.948 105.676 112.534 104.836 111.708Z" fill="black"/>
<path fill-rule="evenodd" clip-rule="evenodd" d="M74.143 75.7601C76.4604 73.4754 79.2462 72.333 82.5003 72.333C84.7191 72.335 86.7653 72.8823 88.6389 73.9751C90.5125 75.0679 91.967 76.5865 93.0024 78.5309C93.3969 79.3087 93.9885 79.8677 94.7774 80.208C95.5663 80.5483 96.3552 80.5483 97.1441 80.208C97.8363 79.9163 98.3422 79.4302 98.6617 78.7497C98.9812 78.0691 98.993 77.3886 98.6972 76.708C97.2693 73.5502 95.088 71.0594 92.1534 69.2355C89.2187 67.4116 86.001 66.4997 82.5003 66.4997C77.5698 66.4997 73.3788 68.2011 69.9274 71.6038C66.476 75.0066 64.7503 79.1386 64.7503 83.9997C64.7523 87.4025 65.6773 90.5379 67.5252 93.4059C69.3732 96.274 71.8503 98.4372 74.9566 99.8955C75.6469 100.236 76.3371 100.236 77.0274 99.8955C77.7177 99.5552 78.2354 99.0448 78.5805 98.3643C78.9276 97.5845 78.9405 96.8184 78.619 96.0659C78.2975 95.3134 77.7423 94.7427 76.9534 94.3538C74.9832 93.333 73.4429 91.899 72.3325 90.0518C71.2222 88.2045 70.667 86.1872 70.667 83.9997C70.667 80.7913 71.8257 78.0448 74.143 75.7601ZM65.7118 67.4476C70.2972 62.9268 75.8934 60.6663 82.5003 60.6663C88.5669 60.6683 93.8061 62.7469 98.2179 66.9022C102.63 71.0575 105.206 76.0518 105.945 81.8851C106.048 82.7134 106.43 83.4183 107.093 83.9997C107.756 84.5811 108.507 84.8484 109.347 84.8018C110.187 84.7551 110.89 84.4518 111.456 83.8918C112.023 83.3318 112.256 82.6629 112.158 81.8851C111.617 74.2531 108.474 67.8365 102.729 62.6351C96.9843 57.4337 90.2413 54.833 82.5003 54.833C78.4099 54.835 74.5641 55.6011 70.9628 57.1313C67.3616 58.6616 64.2306 60.7393 61.5701 63.3643C58.9096 65.9893 56.8023 69.0761 55.2482 72.6247C53.6941 76.1733 52.917 79.965 52.917 83.9997C52.915 87.7913 53.6171 91.4002 55.0233 94.8263C56.4295 98.2525 58.3771 101.291 60.866 103.941C63.355 106.591 66.264 108.743 69.5931 110.396C72.9222 112.048 76.5097 112.996 80.3555 113.239C81.1898 113.288 81.8919 113.045 82.4619 112.51C83.0318 111.975 83.3405 111.295 83.3878 110.468C83.4352 109.642 83.1512 108.913 82.5358 108.281C81.9205 107.649 81.1937 107.284 80.3555 107.187C74.1923 106.604 69.0646 104.125 64.9722 99.7497C60.8798 95.3747 58.8337 90.1247 58.8337 83.9997C58.8337 77.4858 61.1264 71.9684 65.7118 67.4476Z" fill="black"/>
<defs>
<filter id="filter0_f_3315_426" x="0" y="0" width="149.514" height="153.392" filterUnits="userSpaceOnUse" color-interpolation-filters="sRGB">
<feFlood flood-opacity="0" result="BackgroundImageFix"/>
<feBlend mode="normal" in="SourceGraphic" in2="BackgroundImageFix" result="shape"/>
<feGaussianBlur stdDeviation="24" result="effect1_foregroundBlur_3315_426"/>
</filter>
</defs>
</svg>
