<svg width="149" height="149" viewBox="0 0 149 149" fill="none" xmlns="http://www.w3.org/2000/svg">
<g filter="url(#filter0_f_3377_31)">
<circle cx="74.4" cy="74.4" r="26.4" fill="#C5B258"/>
</g>
<g clip-path="url(#clip0_3377_31)">
<path fill-rule="evenodd" clip-rule="evenodd" d="M106.929 94.3839C106.929 105.847 96.5414 111 82 111C67.4586 111 57.0713 105.847 57.0713 94.4649C57.0713 82.0025 63.3044 75.6883 75.7669 69.3742L71.3543 61.1546C71.091 60.7429 70.9444 60.2675 70.9301 59.779C70.9158 59.2906 71.0343 58.8074 71.2731 58.381C71.5118 57.9546 71.8618 57.601 72.2857 57.3578C72.7096 57.1147 73.1916 56.9912 73.6801 57.0005H91.2957C91.7537 57.0122 92.2011 57.1403 92.596 57.3726C92.9908 57.6049 93.32 57.9339 93.5526 58.3286C93.7853 58.7232 93.9137 59.1706 93.9257 59.6285C93.9378 60.0865 93.8331 60.54 93.6216 60.9463L88.2331 69.3742C100.692 75.6035 106.929 81.9176 106.929 94.3839ZM84.4107 75.8503C84.4107 75.211 84.1567 74.5978 83.7046 74.1457C83.2525 73.6936 82.6394 73.4396 82 73.4396C81.3606 73.4396 80.7475 73.6936 80.2954 74.1457C79.8433 74.5978 79.5893 75.211 79.5893 75.8503V78.2688C77.9553 78.3317 76.4006 78.989 75.217 80.1172C74.0334 81.2454 73.3024 82.7669 73.1613 84.396C73.0201 86.0251 73.4786 87.6496 74.4506 88.9645C75.4225 90.2795 76.8411 91.1944 78.4399 91.5373L84.1214 92.7793C84.7038 92.9047 85.2191 93.2412 85.568 93.724C85.9169 94.2068 86.0747 94.8017 86.011 95.394C85.9472 95.9862 85.6665 96.5339 85.2228 96.9314C84.7792 97.329 84.2041 97.5482 83.6084 97.5468H80.3916C79.8929 97.5476 79.4062 97.3937 78.9986 97.1063C78.591 96.8189 78.2826 96.4122 78.1159 95.9422C78.0185 95.6338 77.86 95.3482 77.65 95.1023C77.4399 94.8564 77.1825 94.6553 76.8931 94.511C76.6038 94.3666 76.2883 94.282 75.9655 94.2621C75.6427 94.2421 75.3193 94.2874 75.0143 94.3951C74.7094 94.5027 74.4292 94.6707 74.1905 94.8889C73.9519 95.1071 73.7595 95.371 73.6249 95.6651C73.4904 95.9592 73.4164 96.2773 73.4073 96.6006C73.3982 96.9238 73.4543 97.2456 73.5721 97.5468C74.0267 98.827 74.8318 99.9538 75.8957 100.799C76.9595 101.644 78.2394 102.173 79.5893 102.326V104.779C79.5893 105.418 79.8433 106.031 80.2954 106.484C80.7475 106.936 81.3606 107.19 82 107.19C82.6394 107.19 83.2525 106.936 83.7046 106.484C84.1567 106.031 84.4107 105.418 84.4107 104.779V102.326C86.1127 102.132 87.6909 101.341 88.8644 100.094C90.038 98.8457 90.7308 97.2221 90.8197 95.5115C90.9085 93.8008 90.3876 92.1141 89.3497 90.7515C88.3118 89.3888 86.8241 88.4386 85.1513 88.0698L79.4697 86.8278C79.0088 86.7334 78.5996 86.4705 78.3221 86.0905C78.0447 85.7104 77.9191 85.2406 77.9697 84.7728C78.0203 84.305 78.2436 83.8729 78.596 83.561C78.9483 83.2491 79.4042 83.0799 79.8747 83.0863H83.6084C84.1078 83.0827 84.5958 83.2355 85.0039 83.5233C85.412 83.811 85.7198 84.2193 85.8841 84.6909C86.1085 85.2787 86.5538 85.7556 87.1249 86.0196C87.696 86.2836 88.3477 86.3138 88.9409 86.1039C89.534 85.8939 90.0215 85.4604 90.2994 84.8959C90.5772 84.3313 90.6233 83.6805 90.4279 83.0825C89.9766 81.8005 89.1724 80.6721 88.1078 79.8273C87.0433 78.9824 85.7617 78.4556 84.4107 78.3073V75.8503Z" fill="black"/>
</g>
<path fill-rule="evenodd" clip-rule="evenodd" d="M99 118C101.387 118 103.676 117.052 105.364 115.364C107.052 113.676 108 111.387 108 109C108 106.613 107.052 104.324 105.364 102.636C103.676 100.948 101.387 100 99 100C96.6131 100 94.3239 100.948 92.636 102.636C90.9482 104.324 90 106.613 90 109C90 111.387 90.9482 113.676 92.636 115.364C94.3239 117.052 96.6131 118 99 118ZM99 115.882C98.0962 115.882 97.2013 115.704 96.3664 115.358C95.5314 115.012 94.7727 114.505 94.1337 113.866C93.4946 113.227 92.9877 112.469 92.6419 111.634C92.296 110.799 92.118 109.904 92.118 109C92.118 108.096 92.296 107.201 92.6419 106.366C92.9877 105.531 93.4946 104.773 94.1337 104.134C94.7727 103.495 95.5314 102.988 96.3664 102.642C97.2013 102.296 98.0962 102.118 99 102.118C100.825 102.118 102.576 102.843 103.866 104.134C105.157 105.424 105.882 107.175 105.882 109C105.882 110.825 105.157 112.576 103.866 113.866C102.576 115.157 100.825 115.882 99 115.882ZM104.896 118L107.322 122H109.662L107.235 118H104.896Z" fill="#C5B258"/>
<defs>
<filter id="filter0_f_3377_31" x="0" y="0" width="148.8" height="148.8" filterUnits="userSpaceOnUse" color-interpolation-filters="sRGB">
<feFlood flood-opacity="0" result="BackgroundImageFix"/>
<feBlend mode="normal" in="SourceGraphic" in2="BackgroundImageFix" result="shape"/>
<feGaussianBlur stdDeviation="24" result="effect1_foregroundBlur_3377_31"/>
</filter>
<clipPath id="clip0_3377_31">
<rect width="54" height="54" fill="white" transform="translate(55 57)"/>
</clipPath>
</defs>
</svg>
