<svg width="150" height="149" viewBox="0 0 150 149" fill="none" xmlns="http://www.w3.org/2000/svg">
<g filter="url(#filter0_f_3377_31)">
<circle cx="74.9" cy="74.4" r="26.4" fill="#111111"/>
</g>
<g clip-path="url(#clip0_3377_31)">
<path fill-rule="evenodd" clip-rule="evenodd" d="M107.429 94.3839C107.429 105.847 97.0414 111 82.5 111C67.9586 111 57.5713 105.847 57.5713 94.4649C57.5713 82.0025 63.8044 75.6883 76.2669 69.3742L71.8543 61.1546C71.591 60.7429 71.4444 60.2675 71.4301 59.779C71.4158 59.2906 71.5343 58.8074 71.7731 58.381C72.0118 57.9546 72.3618 57.601 72.7857 57.3578C73.2096 57.1147 73.6916 56.9912 74.1801 57.0005H91.7957C92.2537 57.0122 92.7011 57.1403 93.096 57.3726C93.4908 57.6049 93.82 57.9339 94.0527 58.3286C94.2853 58.7232 94.4137 59.1706 94.4257 59.6285C94.4378 60.0865 94.3331 60.54 94.1216 60.9463L88.7331 69.3742C101.192 75.6035 107.429 81.9176 107.429 94.3839ZM84.9107 75.8503C84.9107 75.211 84.6567 74.5978 84.2046 74.1457C83.7525 73.6936 83.1394 73.4396 82.5 73.4396C81.8606 73.4396 81.2475 73.6936 80.7954 74.1457C80.3433 74.5978 80.0893 75.211 80.0893 75.8503V78.2688C78.4553 78.3317 76.9006 78.989 75.717 80.1172C74.5334 81.2454 73.8024 82.7669 73.6613 84.396C73.5201 86.0251 73.9786 87.6496 74.9506 88.9645C75.9225 90.2795 77.3411 91.1944 78.9399 91.5373L84.6214 92.7793C85.2038 92.9047 85.7191 93.2412 86.068 93.724C86.4169 94.2068 86.5747 94.8017 86.511 95.394C86.4472 95.9862 86.1665 96.5339 85.7228 96.9314C85.2792 97.329 84.7041 97.5482 84.1084 97.5468H80.8916C80.3929 97.5476 79.9062 97.3937 79.4986 97.1063C79.091 96.8189 78.7826 96.4122 78.6159 95.9422C78.5185 95.6338 78.36 95.3482 78.15 95.1023C77.9399 94.8564 77.6825 94.6553 77.3931 94.511C77.1038 94.3666 76.7883 94.282 76.4655 94.2621C76.1427 94.2421 75.8193 94.2874 75.5143 94.3951C75.2094 94.5027 74.9292 94.6707 74.6905 94.8889C74.4519 95.1071 74.2595 95.371 74.1249 95.6651C73.9904 95.9592 73.9164 96.2773 73.9073 96.6006C73.8982 96.9238 73.9543 97.2456 74.0721 97.5468C74.5267 98.827 75.3318 99.9538 76.3957 100.799C77.4595 101.644 78.7394 102.173 80.0893 102.326V104.779C80.0893 105.418 80.3433 106.031 80.7954 106.484C81.2475 106.936 81.8606 107.19 82.5 107.19C83.1394 107.19 83.7525 106.936 84.2046 106.484C84.6567 106.031 84.9107 105.418 84.9107 104.779V102.326C86.6127 102.132 88.1909 101.341 89.3644 100.094C90.538 98.8457 91.2308 97.2221 91.3197 95.5115C91.4085 93.8008 90.8876 92.1141 89.8497 90.7515C88.8118 89.3888 87.3241 88.4386 85.6513 88.0698L79.9697 86.8278C79.5088 86.7334 79.0996 86.4705 78.8221 86.0905C78.5447 85.7104 78.4191 85.2406 78.4697 84.7728C78.5203 84.305 78.7436 83.8729 79.096 83.561C79.4483 83.2491 79.9042 83.0799 80.3747 83.0863H84.1084C84.6078 83.0827 85.0958 83.2355 85.5039 83.5233C85.912 83.811 86.2198 84.2193 86.3841 84.6909C86.6085 85.2787 87.0538 85.7556 87.6249 86.0196C88.196 86.2836 88.8477 86.3138 89.4409 86.1039C90.034 85.8939 90.5215 85.4604 90.7994 84.8959C91.0772 84.3313 91.1233 83.6805 90.9279 83.0825C90.4766 81.8005 89.6724 80.6721 88.6078 79.8273C87.5433 78.9824 86.2617 78.4556 84.9107 78.3073V75.8503Z" fill="black"/>
</g>
<path fill-rule="evenodd" clip-rule="evenodd" d="M99.5 118C101.887 118 104.176 117.052 105.864 115.364C107.552 113.676 108.5 111.387 108.5 109C108.5 106.613 107.552 104.324 105.864 102.636C104.176 100.948 101.887 100 99.5 100C97.1131 100 94.8239 100.948 93.136 102.636C91.4482 104.324 90.5 106.613 90.5 109C90.5 111.387 91.4482 113.676 93.136 115.364C94.8239 117.052 97.1131 118 99.5 118ZM99.5 115.882C98.5962 115.882 97.7013 115.704 96.8664 115.358C96.0314 115.012 95.2727 114.505 94.6337 113.866C93.9946 113.227 93.4877 112.469 93.1419 111.634C92.796 110.799 92.618 109.904 92.618 109C92.618 108.096 92.796 107.201 93.1419 106.366C93.4877 105.531 93.9946 104.773 94.6337 104.134C95.2727 103.495 96.0314 102.988 96.8664 102.642C97.7013 102.296 98.5962 102.118 99.5 102.118C101.325 102.118 103.076 102.843 104.366 104.134C105.657 105.424 106.382 107.175 106.382 109C106.382 110.825 105.657 112.576 104.366 113.866C103.076 115.157 101.325 115.882 99.5 115.882ZM105.396 118L107.822 122H110.162L107.735 118H105.396Z" fill="#111111"/>
<defs>
<filter id="filter0_f_3377_31" x="0.5" y="0" width="148.8" height="148.8" filterUnits="userSpaceOnUse" color-interpolation-filters="sRGB">
<feFlood flood-opacity="0" result="BackgroundImageFix"/>
<feBlend mode="normal" in="SourceGraphic" in2="BackgroundImageFix" result="shape"/>
<feGaussianBlur stdDeviation="24" result="effect1_foregroundBlur_3377_31"/>
</filter>
<clipPath id="clip0_3377_31">
<rect width="54" height="54" fill="white" transform="translate(55.5 57)"/>
</clipPath>
</defs>
</svg>
